<svg xmlns="http://www.w3.org/2000/svg" viewBox="0 0 779 353"><title>optiker-logo</title><g id="Lager_2" data-name="Lager 2"><g id="Lager_4" data-name="Lager 4"><path d="M602.5,0A177,177,0,0,0,444.58,97.59a89.41,89.41,0,0,0-111.32-2.26A176.53,176.53,0,0,0,176.5,0C79.18,0,0,79.18,0,176.5S79.18,353,176.5,353a176.92,176.92,0,0,0,25.9-1.91h.4v0C287.69,338.3,353,264.89,353,176.5a175.47,175.47,0,0,0-12.66-65.76,72.92,72.92,0,0,1,97.55,2A175.53,175.53,0,0,0,426,176.5C426,273.82,505.18,353,602.5,353S779,273.82,779,176.5,699.82,0,602.5,0Zm-274,108.46,1.23,2.9A165.75,165.75,0,0,1,337,131.91l-21.51-.4V84.75a166,166,0,0,1,11.6,20.58ZM295,59.58l.21,71.93L244.9,132a27.2,27.2,0,0,0-15-4.38q-15.19,0-27.15,19.42L202,12A165.67,165.67,0,0,1,266.7,36.53,167.63,167.63,0,0,1,295,59.58ZM250.9,203.49q0,19.27-7,32.12-6.84,12.84-17.36,12.85-11.15,0-18-12.71-6.92-13-6.92-33,0-20.44,6.92-33t18.07-12.55q10.53,0,17.45,13T250.9,203.49ZM87.09,246q-20.15,0-35.52-24.09T36.11,160.42q0-35.62,14.92-59.86Q66,76,87.62,76t36.51,24.53Q139,125,139,161q0,35.63-15,60.45Q108.94,246,87.09,246Zm40,89.54c9.65-27,33-145.64,33-174.22C160.09,129.08,168,27,149,13l-.82-.58A167.38,167.38,0,0,1,176.5,10c2.17,0,4.33.05,6.49.13l-.41,332.75c-2,.07-4,.12-6.08.12A166,166,0,0,1,127.05,335.51Zm75.75,5.41V257.8q12.13,20,27.51,20,17.81,0,29.49-21.17t11.78-53.29q0-23.58-6.19-41.31l29.84.14L295,293.32A166.27,166.27,0,0,1,202.8,340.92Zm112.65-72.8v-106l26.92-.14c.41,4.79.63,9.61.63,14.47A165.53,165.53,0,0,1,315.45,268.12ZM691,246l-17.9-14.53q-6.54,14.58-11.66,20a17.55,17.55,0,0,1-13.18,5.4q-10.25,0-16.79-9.45t-7.39-25.79h66.19l.09-7.15q0-32.53-11.76-50.9t-32.24-18.5q-20.19,0-32.43,19-12.13,19.31-12.14,50.49c0,12.52,1.73,52.35,4.9,85.15l-54.21-95.81L680.29,29.33A166.87,166.87,0,0,1,714,53V300A166.86,166.86,0,0,1,691.81,317C692.65,300.61,688.6,251.83,691,246Zm-65.5-49.23a44.58,44.58,0,0,1,3-10.12,30,30,0,0,1,4.79-7.63,20.22,20.22,0,0,1,6.21-4.86,16.22,16.22,0,0,1,7.31-1.69q17.07,0,21.52,24.3ZM734.93,212q0-37.53,17.45-37.53c2.52,0,10.9,5.47,16.46,9.18a165.65,165.65,0,0,1-33.91,93.61Zm-.87-137.46a165.8,165.8,0,0,1,32.45,73.19,22.08,22.08,0,0,0-10.15-2.7,18.23,18.23,0,0,0-11,3.38q-4.54,3.24-10.43,12ZM656.23,18.9,533.9,191.24S534.09,74,534,24.81A166.15,166.15,0,0,1,656.23,18.9ZM448.39,113.39l1.25-3h0l1.14-2.51A167.27,167.27,0,0,1,461.1,88.59c-.1,2-.13,3.92-.13,5.44a24,24,0,0,0,4.08,14.17q4.08,5.82,9.86,5.81t9.77-5.81a23.79,23.79,0,0,0,4.08-14c0-4.52-1.39-26.29-3.4-35.93a167.86,167.86,0,0,1,27.64-22V316.84a167.62,167.62,0,0,1-27-21.53l-.45-146.6H464.2v120.4a166.46,166.46,0,0,1-15.81-155.72ZM534,328.25l-.09-98.67,3.41-4.86L603,343h-.5A165.63,165.63,0,0,1,534,328.25Z"/></g></g></svg>